{
  "accessors": [
    {
      "bufferView": 1,
      "componentType": 5126,
      "count": 676,
      "max": [
        1.250899076461792,
        1.6018855571746826,
        1.837985634803772
      ],
      "min": [
        -1.94887113571167,
        -1.0,
        -1.83774733543396
      ],
      "type": "VEC3"
    },
    {
      "bufferView": 1,
      "byteOffset": 8112,
      "componentType": 5126,
      "count": 676,
      "max": [
        0.9928967356681824,
        0.9995371103286743,
        0.9938389658927917
      ],
      "min": [
        -0.9884373545646667,
        -0.9984735250473022,
        -0.9917641282081604
      ],
      "type": "VEC3"
    },
    {
      "bufferView": 2,
      "componentType": 5126,
      "count": 676,
      "max": [
        1.0,
        1.0,
        1.0,
        1.0
      ],
      "min": [
        0.0,
        0.0,
        0.0,
        1.0
      ],
      "type": "VEC4"
    },
    {
      "bufferView": 0,
      "componentType": 5125,
      "count": 2268,
      "type": "SCALAR"
    },
    {
      "bufferView": 1,
      "byteOffset": 16224,
      "componentType": 5126,
      "count": 488,
      "max": [
        3.1922543048858643,
        -0.22941869497299194,
        4.7008562088012695
      ],
      "min": [
        0.6301416158676147,
        -2.558849811553955,
        -4.697254657745361
      ],
      "type": "VEC3"
    },
    {
      "bufferView": 1,
      "byteOffset": 22080,
      "componentType": 5126,
      "count": 488,
      "max": [
        0.9928967356681824,
        0.9995371103286743,
        0.9938389658927917
      ],
      "min": [
        -0.9884373545646667,
        -0.9984735250473022,
        -0.9917641282081604
      ],
      "type": "VEC3"
    },
    {
      "bufferView": 2,
      "byteOffset": 10816,
      "componentType": 5126,
      "count": 488,
      "max": [
        1.0,
        1.0,
        1.0,
        1.0
      ],
      "min": [
        1.0,
        1.0,
        1.0,
        1.0
      ],
      "type": "VEC4"
    },
    {
      "bufferView": 0,
      "byteOffset": 9072,
      "componentType": 5125,
      "count": 2016,
      "type": "SCALAR"
    },
    {
      "bufferView": 1,
      "byteOffset": 27936,
      "componentType": 5126,
      "count": 244,
      "max": [
        0.7557044625282288,
        3.0941410064697266,
        0.584953784942627
      ],
      "min": [
        -0.4095644950866699,
        1.5537015199661255,
        -0.5826840400695801
      ],
      "type": "VEC3"
    },
    {
      "bufferView": 1,
      "byteOffset": 30864,
      "componentType": 5126,
      "count": 244,
      "max": [
        0.9928967356681824,
        0.9995371103286743,
        0.9938389658927917
      ],
      "min": [
        -0.9884373545646667,
        -0.9984735250473022,
        -0.9917641282081604
      ],
      "type": "VEC3"
    },
    {
      "bufferView": 2,
      "byteOffset": 18624,
      "componentType": 5126,
      "count": 244,
      "max": [
        1.0,
        1.0,
        1.0,
        1.0
      ],
      "min": [
        1.0,
        1.0,
        1.0,
        1.0
      ],
      "type": "VEC4"
    },
    {
      "bufferView": 0,
      "byteOffset": 17136,
      "componentType": 5125,
      "count": 1008,
      "type": "SCALAR"
    },
    {
      "bufferView": 1,
      "byteOffset": 33792,
      "componentType": 5126,
      "count": 244,
      "max": [
        -1.7790471315383911,
        0.42092713713645935,
        1.6368653774261475
      ],
      "min": [
        -6.5619988441467285,
        -2.8731906414031982,
        -1.6325207948684692
      ],
      "type": "VEC3"
    },
    {
      "bufferView": 1,
      "byteOffset": 36720,
      "componentType": 5126,
      "count": 244,
      "max": [
        0.9928967356681824,
        0.9995371103286743,
        0.9938389658927917
      ],
      "min": [
        -0.9884373545646667,
        -0.9984735250473022,
        -0.9917641282081604
      ],
      "type": "VEC3"
    },
    {
      "bufferView": 2,
      "byteOffset": 22528,
      "componentType": 5126,
      "count": 244,
      "max": [
        1.0,
        1.0,
        1.0,
        1.0
      ],
      "min": [
        1.0,
        1.0,
        1.0,
        1.0
      ],
      "type": "VEC4"
    },
    {
      "bufferView": 0,
      "byteOffset": 21168,
      "componentType": 5125,
      "count": 1008,
      "type": "SCALAR"
    },
    {
      "bufferView": 1,
      "byteOffset": 39648,
      "componentType": 5126,
      "count": 676,
      "max": [
        1.250899076461792,
        1.6018855571746826,
        1.837985634803772
      ],
      "min": [
        -1.94887113571167,
        -1.0,
        -1.83774733543396
      ],
      "type": "VEC3"
    },
    {
      "bufferView": 1,
      "byteOffset": 47760,
      "componentType": 5126,
      "count": 676,
      "max": [
        0.9928967356681824,
        0.9995371103286743,
        0.9938389658927917
      ],
      "min": [
        -0.9884373545646667,
        -0.9984735250473022,
        -0.9917641282081604
      ],
      "type": "VEC3"
    },
    {
      "bufferView": 2,
      "byteOffset": 26432,
      "componentType": 5126,
      "count": 676,
      "max": [
        1.0,
        1.0,
        1.0,
        1.0
      ],
      "min": [
        0.0,
        0.0,
        0.0,
        1.0
      ],
      "type": "VEC4"
    },
    {
      "bufferView": 0,
      "byteOffset": 25200,
      "componentType": 5125,
      "count": 2268,
      "type": "SCALAR"
    },
    {
      "bufferView": 1,
      "byteOffset": 55872,
      "componentType": 5126,
      "count": 488,
      "max": [
        3.1922543048858643,
        -0.22941869497299194,
        4.7008562088012695
      ],
      "min": [
        0.6301416158676147,
        -2.558849811553955,
        -4.697254657745361
      ],
      "type": "VEC3"
    },
    {
      "bufferView": 1,
      "byteOffset": 61728,
      "componentType": 5126,
      "count": 488,
      "max": [
        0.9928967356681824,
        0.9995371103286743,
        0.9938389658927917
      ],
      "min": [
        -0.9884373545646667,
        -0.9984735250473022,
        -0.9917641282081604
      ],
      "type": "VEC3"
    },
    {
      "bufferView": 2,
      "byteOffset": 37248,
      "componentType": 5126,
      "count": 488,
      "max": [
        1.0,
        1.0,
        1.0,
        1.0
      ],
      "min": [
        1.0,
        1.0,
        1.0,
        1.0
      ],
      "type": "VEC4"
    },
    {
      "bufferView": 0,
      "byteOffset": 34272,
      "componentType": 5125,
      "count": 2016,
      "type": "SCALAR"
    },
    {
      "bufferView": 1,
      "byteOffset": 67584,
      "componentType": 5126,
      "count": 244,
      "max": [
        0.7557044625282288,
        3.0941410064697266,
        0.584953784942627
      ],
      "min": [
        -0.4095644950866699,
        1.5537015199661255,
        -0.5826840400695801
      ],
      "type": "VEC3"
    },
    {
      "bufferView": 1,
      "byteOffset": 70512,
      "componentType": 5126,
      "count": 244,
      "max": [
        0.9928967356681824,
        0.9995371103286743,
        0.9938389658927917
      ],
      "min": [
        -0.9884373545646667,
        -0.9984735250473022,
        -0.9917641282081604
      ],
      "type": "VEC3"
    },
    {
      "bufferView": 2,
      "byteOffset": 45056,
      "componentType": 5126,
      "count": 244,
      "max": [
        1.0,
        1.0,
        1.0,
        1.0
      ],
      "min": [
        1.0,
        1.0,
        1.0,
        1.0
      ],
      "type": "VEC4"
    },
    {
      "bufferView": 0,
      "byteOffset": 42336,
      "componentType": 5125,
      "count": 1008,
      "type": "SCALAR"
    },
    {
      "bufferView": 1,
      "byteOffset": 73440,
      "componentType": 5126,
      "count": 244,
      "max": [
        -1.7790471315383911,
        0.42092713713645935,
        1.6368653774261475
      ],
      "min": [
        -6.5619988441467285,
        -2.8731906414031982,
        -1.6325207948684692
      ],
      "type": "VEC3"
    },
    {
      "bufferView": 1,
      "byteOffset": 76368,
      "componentType": 5126,
      "count": 244,
      "max": [
        0.9928967356681824,
        0.9995371103286743,
        0.9938389658927917
      ],
      "min": [
        -0.9884373545646667,
        -0.9984735250473022,
        -0.9917641282081604
      ],
      "type": "VEC3"
    },
    {
      "bufferView": 2,
      "byteOffset": 48960,
      "componentType": 5126,
      "count": 244,
      "max": [
        1.0,
        1.0,
        1.0,
        1.0
      ],
      "min": [
        1.0,
        1.0,
        1.0,
        1.0
      ],
      "type": "VEC4"
    },
    {
      "bufferView": 0,
      "byteOffset": 46368,
      "componentType": 5125,
      "count": 1008,
      "type": "SCALAR"
    },
    {
      "bufferView": 3,
      "componentType": 5126,
      "count": 74,
      "max": [
        9.166666984558105
      ],
      "min": [
        0.0416666679084301
      ],
      "type": "SCALAR"
    },
    {
      "bufferView": 4,
      "componentType": 5126,
      "count": 74,
      "max": [
        0.0,
        0.0,
        2.5
      ],
      "min": [
        0.0,
        0.0,
        -2.5
      ],
      "type": "VEC3"
    },
    {
      "bufferView": 3,
      "byteOffset": 296,
      "componentType": 5126,
      "count": 63,
      "max": [
        9.166666984558105
      ],
      "min": [
        0.0416666679084301
      ],
      "type": "SCALAR"
    },
    {
      "bufferView": 5,
      "componentType": 5126,
      "count": 63,
      "max": [
        0.7071068286895752,
        0.0,
        -0.0,
        1.0
      ],
      "min": [
        -0.7071068286895752,
        0.0,
        -0.0,
        0.7071068286895752
      ],
      "type": "VEC4"
    },
    {
      "bufferView": 3,
      "byteOffset": 548,
      "componentType": 5126,
      "count": 73,
      "max": [
        7.916666507720947
      ],
      "min": [
        0.0416666679084301
      ],
      "type": "SCALAR"
    },
    {
      "bufferView": 4,
      "byteOffset": 888,
      "componentType": 5126,
      "count": 73,
      "max": [
        0.0,
        0.0,
        2.5
      ],
      "min": [
        0.0,
        0.0,
        -2.5
      ],
      "type": "VEC3"
    },
    {
      "bufferView": 3,
      "byteOffset": 840,
      "componentType": 5126,
      "count": 63,
      "max": [
        9.166666984558105
      ],
      "min": [
        0.0416666679084301
      ],
      "type": "SCALAR"
    },
    {
      "bufferView": 5,
      "byteOffset": 1008,
      "componentType": 5126,
      "count": 63,
      "max": [
        0.7071068286895752,
        0.0,
        -0.0,
        1.0
      ],
      "min": [
        -0.7071068286895752,
        0.0,
        -0.0,
        0.7071067094802856
      ],
      "type": "VEC4"
    }
  ],
  "animations": [
    {
      "channels": [
        {
          "sampler": 0,
          "target": {
            "node": 8,
            "path": "translation"
          }
        },
        {
          "sampler": 1,
          "target": {
            "node": 8,
            "path": "rotation"
          }
        }
      ],
      "name": "Action",
      "samplers": [
        {
          "input": 32,
          "interpolation": "LINEAR",
          "output": 33
        },
        {
          "input": 34,
          "interpolation": "LINEAR",
          "output": 35
        }
      ]
    },
    {
      "channels": [
        {
          "sampler": 0,
          "target": {
            "node": 8,
            "path": "translation"
          }
        },
        {
          "sampler": 1,
          "target": {
            "node": 8,
            "path": "rotation"
          }
        }
      ],
      "name": "subnode_0Action",
      "samplers": [
        {
          "input": 36,
          "interpolation": "LINEAR",
          "output": 37
        },
        {
          "input": 38,
          "interpolation": "LINEAR",
          "output": 39
        }
      ]
    }
  ],
  "asset": {
    "extras": {
      "author": "Michael Aristov (https://sketchfab.com/Michael.Aristov)",
      "license": "CC-BY-SA-4.0 (http://creativecommons.org/licenses/by-sa/4.0/)",
      "source": "https://sketchfab.com/3d-models/superimposing-dichloroiodomethane-mirror-images-09919717a9c14ca2a19d37682a62d9a2",
      "title": "Superimposing Dichloroiodomethane Mirror Images"
    },
    "generator": "Sketchfab-11.36.1",
    "version": "2.0"
  },
  "bufferViews": [
    {
      "buffer": 0,
      "byteLength": 50400,
      "name": "floatBufferViews",
      "target": 34963
    },
    {
      "buffer": 0,
      "byteLength": 79296,
      "byteOffset": 50400,
      "byteStride": 12,
      "name": "floatBufferViews",
      "target": 34962
    },
    {
      "buffer": 0,
      "byteLength": 52864,
      "byteOffset": 129696,
      "byteStride": 16,
      "name": "floatBufferViews",
      "target": 34962
    },
    {
      "buffer": 0,
      "byteLength": 1092,
      "byteOffset": 182560,
      "name": "floatBufferViews"
    },
    {
      "buffer": 0,
      "byteLength": 1764,
      "byteOffset": 183652,
      "byteStride": 12,
      "name": "floatBufferViews"
    },
    {
      "buffer": 0,
      "byteLength": 2016,
      "byteOffset": 185416,
      "byteStride": 16,
      "name": "floatBufferViews"
    }
  ],
  "buffers": [
    {
      "byteLength": 187432,
      "uri": "scene.bin"
    }
  ],
  "materials": [
    {
      "alphaMode": "BLEND",
      "doubleSided": true,
      "name": "material_1.001",
      "pbrMetallicRoughness": {
        "baseColorFactor": [
          0.0,
          0.0,
          0.0,
          0.5
        ],
        "metallicFactor": 0.0,
        "roughnessFactor": 0.5
      }
    },
    {
      "alphaMode": "BLEND",
      "doubleSided": true,
      "name": "material_2.001",
      "pbrMetallicRoughness": {
        "baseColorFactor": [
          0.12156899999999987,
          0.9411759999999998,
          0.12156899999999987,
          0.5
        ],
        "metallicFactor": 0.0,
        "roughnessFactor": 0.5
      }
    },
    {
      "alphaMode": "BLEND",
      "doubleSided": true,
      "name": "material_0.001",
      "pbrMetallicRoughness": {
        "baseColorFactor": [
          1.0,
          1.0,
          1.0,
          0.5
        ],
        "metallicFactor": 0.0,
        "roughnessFactor": 0.5
      }
    },
    {
      "alphaMode": "BLEND",
      "doubleSided": true,
      "name": "material_3.001",
      "pbrMetallicRoughness": {
        "baseColorFactor": [
          0.580392,
          0.0,
          0.580392,
          0.5
        ],
        "metallicFactor": 0.0,
        "roughnessFactor": 0.5
      }
    },
    {
      "doubleSided": true,
      "name": "material_1",
      "pbrMetallicRoughness": {
        "baseColorFactor": [
          0.0,
          0.0,
          0.0,
          1.0
        ],
        "metallicFactor": 0.0,
        "roughnessFactor": 0.5
      }
    },
    {
      "doubleSided": true,
      "name": "material_2",
      "pbrMetallicRoughness": {
        "baseColorFactor": [
          0.121569,
          0.941176,
          0.121569,
          1.0
        ],
        "metallicFactor": 0.0,
        "roughnessFactor": 0.5
      }
    },
    {
      "doubleSided": true,
      "name": "material_0",
      "pbrMetallicRoughness": {
        "metallicFactor": 0.0,
        "roughnessFactor": 0.5
      }
    },
    {
      "doubleSided": true,
      "name": "material_3",
      "pbrMetallicRoughness": {
        "baseColorFactor": [
          0.580392,
          0.0,
          0.580392,
          1.0
        ],
        "metallicFactor": 0.0,
        "roughnessFactor": 0.5
      }
    }
  ],
  "meshes": [
    {
      "name": "Object_0",
      "primitives": [
        {
          "attributes": {
            "COLOR_0": 2,
            "NORMAL": 1,
            "POSITION": 0
          },
          "indices": 3,
          "material": 0,
          "mode": 4
        }
      ]
    },
    {
      "name": "Object_1",
      "primitives": [
        {
          "attributes": {
            "COLOR_0": 6,
            "NORMAL": 5,
            "POSITION": 4
          },
          "indices": 7,
          "material": 1,
          "mode": 4
        }
      ]
    },
    {
      "name": "Object_2",
      "primitives": [
        {
          "attributes": {
            "COLOR_0": 10,
            "NORMAL": 9,
            "POSITION": 8
          },
          "indices": 11,
          "material": 2,
          "mode": 4
        }
      ]
    },
    {
      "name": "Object_3",
      "primitives": [
        {
          "attributes": {
            "COLOR_0": 14,
            "NORMAL": 13,
            "POSITION": 12
          },
          "indices": 15,
          "material": 3,
          "mode": 4
        }
      ]
    },
    {
      "name": "Object_4",
      "primitives": [
        {
          "attributes": {
            "COLOR_0": 18,
            "NORMAL": 17,
            "POSITION": 16
          },
          "indices": 19,
          "material": 4,
          "mode": 4
        }
      ]
    },
    {
      "name": "Object_5",
      "primitives": [
        {
          "attributes": {
            "COLOR_0": 22,
            "NORMAL": 21,
            "POSITION": 20
          },
          "indices": 23,
          "material": 5,
          "mode": 4
        }
      ]
    },
    {
      "name": "Object_6",
      "primitives": [
        {
          "attributes": {
            "COLOR_0": 26,
            "NORMAL": 25,
            "POSITION": 24
          },
          "indices": 27,
          "material": 6,
          "mode": 4
        }
      ]
    },
    {
      "name": "Object_7",
      "primitives": [
        {
          "attributes": {
            "COLOR_0": 30,
            "NORMAL": 29,
            "POSITION": 28
          },
          "indices": 31,
          "material": 7,
          "mode": 4
        }
      ]
    }
  ],
  "nodes": [
    {
      "children": [
        1
      ],
      "matrix": [
        -2.220446049250313e-16,
        -1.0,
        -3.3306690738754696e-16,
        0.0,
        1.0,
        -1.1102230246251565e-16,
        -2.465190328815662e-32,
        0.0,
        1.1102230246251565e-16,
        -4.440892098500626e-16,
        1.0,
        0.0,
        -0.7785088419914246,
        -0.7505566477775574,
        -0.027952115982771086,
        1.0
      ],
      "name": "Sketchfab_model"
    },
    {
      "children": [
        2
      ],
      "name": "root"
    },
    {
      "children": [
        3,
        8
      ],
      "matrix": [
        1.0,
        0.0,
        0.0,
        0.0,
        0.0,
        2.220446049250313e-16,
        1.0,
        0.0,
        0.0,
        -1.0,
        2.220446049250313e-16,
        0.0,
        0.0,
        0.0,
        0.0,
        1.0
      ],
      "name": "GLTF_SceneRootNode"
    },
    {
      "children": [
        4,
        5,
        6,
        7
      ],
      "matrix": [
        0.4449999928474426,
        0.0,
        0.0,
        0.0,
        0.0,
        0.0,
        0.4449999928474426,
        0.0,
        0.0,
        -0.4449999928474426,
        0.0,
        0.0,
        0.0,
        0.0,
        -2.5,
        1.0
      ],
      "name": "subnode_0.002_0"
    },
    {
      "mesh": 0,
      "name": "Object_4"
    },
    {
      "mesh": 1,
      "name": "Object_5"
    },
    {
      "mesh": 2,
      "name": "Object_6"
    },
    {
      "mesh": 3,
      "name": "Object_7"
    },
    {
      "children": [
        9,
        10,
        11,
        12
      ],
      "name": "subnode_0_1",
      "rotation": [
        -0.7071067690849304,
        0.0,
        0.0,
        0.7071068286895752
      ],
      "scale": [
        0.42500001192092896,
        0.42500001192092896,
        0.42500001192092896
      ],
      "translation": [
        0.0,
        0.0,
        2.5
      ]
    },
    {
      "mesh": 4,
      "name": "Object_9"
    },
    {
      "mesh": 5,
      "name": "Object_10"
    },
    {
      "mesh": 6,
      "name": "Object_11"
    },
    {
      "mesh": 7,
      "name": "Object_12"
    }
  ],
  "scene": 0,
  "scenes": [
    {
      "name": "Sketchfab_Scene",
      "nodes": [
        0
      ]
    }
  ]
}
